<svg width="128" height="128" viewBox="0 0 128 128" fill="none" xmlns="http://www.w3.org/2000/svg">
<path fill-rule="evenodd" clip-rule="evenodd" d="M27.7602 25.7839C28.5157 24.9849 29.5669 24.5322 30.6665 24.5322H98.3998C99.4992 24.5322 100.55 24.9847 101.306 25.7834C102.061 26.582 102.455 27.6564 102.394 28.7541L98.1325 105.455C98.0626 112.214 92.2051 116.799 86.1332 116.799H42.9332C36.6704 116.799 30.9976 112.036 30.9337 104.92L26.6728 28.7557C26.6113 27.6577 27.0046 26.5829 27.7602 25.7839ZM34.8965 32.5322L38.9269 104.575C38.9311 104.65 38.9332 104.724 38.9332 104.799C38.9332 107.216 40.6983 108.799 42.9332 108.799H86.1332C88.558 108.799 90.1332 107.04 90.1332 105.332C90.1332 105.258 90.1352 105.184 90.1393 105.11L94.1715 32.5322H34.8965Z" fill="#28A4C1"/>
<path fill-rule="evenodd" clip-rule="evenodd" d="M21.3335 28.5322C21.3335 26.3231 23.1244 24.5322 25.3335 24.5322H103.733C105.943 24.5322 107.733 26.3231 107.733 28.5322C107.733 30.7414 105.943 32.5322 103.733 32.5322H25.3335C23.1244 32.5322 21.3335 30.7414 21.3335 28.5322Z" fill="#28A4C1"/>
<path opacity="0.3" fill-rule="evenodd" clip-rule="evenodd" d="M55.7339 18.667C54.743 18.667 53.8672 19.5428 53.8672 20.5337V24.5337H75.2005V20.5337C75.2005 19.5428 74.3247 18.667 73.3339 18.667H55.7339ZM45.8672 20.5337C45.8672 15.1245 50.3247 10.667 55.7339 10.667H73.3339C78.743 10.667 83.2005 15.1245 83.2005 20.5337V28.5337C83.2005 30.7428 81.4097 32.5337 79.2005 32.5337H49.8672C47.658 32.5337 45.8672 30.7428 45.8672 28.5337V20.5337Z" fill="#28A4C1"/>
<path opacity="0.3" fill-rule="evenodd" clip-rule="evenodd" d="M64.2681 36.7998C66.4772 36.7998 68.2681 38.5907 68.2681 40.7998V101.6C68.2681 103.809 66.4772 105.6 64.2681 105.6C62.0589 105.6 60.2681 103.809 60.2681 101.6V40.7998C60.2681 38.5907 62.0589 36.7998 64.2681 36.7998Z" fill="#28A4C1"/>
<path opacity="0.3" fill-rule="evenodd" clip-rule="evenodd" d="M44.756 36.278C46.9584 36.1057 48.8835 37.7513 49.0559 39.9537L53.8559 101.287C54.0282 103.489 52.3826 105.415 50.1802 105.587C47.9778 105.759 46.0526 104.114 45.8803 101.911L41.0803 40.5779C40.9079 38.3755 42.5536 36.4504 44.756 36.278Z" fill="#28A4C1"/>
<path opacity="0.3" fill-rule="evenodd" clip-rule="evenodd" d="M84.313 36.278C86.5154 36.4504 88.1611 38.3755 87.9887 40.5779L83.1887 101.911C83.0163 104.114 81.0912 105.759 78.8888 105.587C76.6864 105.415 75.0407 103.489 75.2131 101.287L80.0131 39.9537C80.1854 37.7513 82.1106 36.1057 84.313 36.278Z" fill="#28A4C1"/>
</svg>
