<svg xmlns="http://www.w3.org/2000/svg" width="24" height="24" viewBox="0 0 24 24" fill="none" style="&#10;    /* background: #000; */&#10;">
<path d="M17.7057 7.70568C17.3159 7.31594 16.6841 7.31594 16.2943 7.70568C15.9051 8.09489 15.9045 8.72572 16.293 9.11568L18.17 11H9C8.44771 11 8 11.4477 8 12C8 12.5523 8.44772 13 9 13H18.17L16.295 14.875C15.9052 15.2648 15.9041 15.8964 16.2925 16.2875C16.6828 16.6806 17.3183 16.6817 17.71 16.29L21.0028 12.9972C21.5536 12.4464 21.5535 11.5535 21.0028 11.0028L17.7057 7.70568Z" fill="white"/>
<path opacity="0.3" d="M11 5H4V19H11C11.5523 19 12 19.4477 12 20C12 20.5523 11.5523 21 11 21H4C2.9 21 2 20.1 2 19V5C2 3.9 2.9 3 4 3H11C11.5523 3 12 3.44772 12 4C12 4.55228 11.5523 5 11 5Z" fill="white"/>
</svg>