<svg xmlns="http://www.w3.org/2000/svg" version="1.1" width="35.93" height="32" viewBox="0 0 2000 404">
<path fill="#000000" d="   M 548.78 -0.02   L 550.06 0.00   C 556.72 2.40 557.74 13.99 557.74 20.13   Q 557.76 202.32 557.75 384.50   C 557.75 389.06 555.51 401.33 550.02 402.02   C 542.64 402.94 541.26 386.08 541.26 381.60   Q 541.24 203.22 541.25 24.84   Q 541.26 13.51 541.62 11.70   Q 543.00 4.80 548.78 -0.02   Z"/>
<path fill="#000000" d="   M 3.71 2.17   C 126.98 34.46 250.39 66.35 373.47 99.35   C 389.75 103.72 399.16 112.93 407.65 127.28   Q 415.10 139.87 422.53 152.52   A 0.28 0.28 0.0 0 1 422.25 152.94   Q 298.73 137.10 175.28 121.22   Q 162.64 119.60 155.94 117.53   Q 146.49 114.61 137.71 109.81   Q 96.11 87.09 55.49 54.98   C 34.70 38.54 15.10 22.00 0.25 1.44   A 0.35 0.34 -3.2 0 1 0.70 0.94   Q 2.17 1.77 3.71 2.17   Z"/>
<path fill="#000000" d="   M 1128.42 136.98   C 1130.76 129.09 1113.62 124.03 1108.27 122.41   C 1092.24 117.54 1076.06 112.69 1061.11 104.99   C 1040.92 94.58 1036.02 73.38 1041.20 52.70   C 1046.19 32.72 1063.79 18.93 1083.27 13.54   C 1104.32 7.71 1125.47 7.69 1146.69 9.85   C 1150.41 10.23 1153.50 10.48 1156.77 12.64   Q 1171.06 22.09 1185.19 31.75   Q 1185.60 32.04 1185.45 32.52   L 1173.09 69.98   Q 1172.91 70.51 1172.38 70.37   Q 1140.01 62.11 1107.77 53.99   C 1105.14 53.33 1100.16 55.28 1098.60 57.81   C 1095.20 63.34 1101.63 68.73 1106.63 70.80   C 1127.91 79.63 1152.60 85.82 1170.85 99.36   C 1188.68 112.59 1192.63 136.87 1184.94 156.52   C 1166.48 203.64 1092.30 196.92 1055.72 183.57   Q 1049.63 181.35 1044.40 177.57   Q 1044.00 177.28 1044.00 176.78   L 1044.00 124.52   A 0.40 0.39 -75.7 0 1 1044.58 124.17   Q 1076.93 141.79 1113.74 142.99   C 1118.01 143.12 1126.91 142.06 1128.42 136.98   Z"/>
<path fill="#000000" d="   M 660.75 59.42   A 0.78 0.77 -3.2 0 0 659.97 60.29   L 662.33 79.20   Q 662.40 79.75 662.96 79.75   L 724.94 79.75   A 0.69 0.68 90.0 0 1 725.62 80.44   L 725.47 121.04   Q 725.47 121.49 725.02 121.49   C 710.36 121.52 695.68 122.00 681.07 120.69   Q 672.03 119.89 663.17 119.09   A 0.67 0.67 0.0 0 0 662.44 119.76   C 662.53 132.70 661.91 145.56 663.30 158.37   Q 664.10 165.75 664.79 173.14   C 665.31 178.78 663.53 184.79 662.57 190.35   Q 662.45 191.00 661.79 191.00   L 606.99 191.00   A 0.49 0.49 0.0 0 1 606.50 190.51   Q 606.50 123.44 606.50 56.22   C 606.50 47.17 603.53 37.45 602.00 28.48   C 601.27 24.20 604.90 16.02 606.39 11.83   Q 606.59 11.25 607.21 11.25   L 736.74 11.25   Q 737.27 11.25 737.73 11.52   L 749.27 18.29   Q 750.00 18.72 749.70 19.52   L 733.36 61.65   A 0.46 0.46 0.0 0 1 732.88 61.94   C 723.11 60.98 713.45 59.47 703.66 59.53   Q 682.17 59.64 660.75 59.42   Z"/>
<path fill="#000000" d="   M 825.30 12.89   C 825.43 13.10 825.49 13.07 825.49 13.34   Q 825.52 101.88 825.48 190.46   A 0.54 0.54 0.0 0 1 824.94 191.00   L 769.73 191.00   A 0.48 0.48 0.0 0 1 769.25 190.52   Q 769.25 124.61 769.25 58.60   C 769.25 49.36 768.15 40.41 767.21 31.27   C 766.52 24.62 768.01 18.33 769.21 11.88   Q 769.32 11.25 769.96 11.25   L 824.21 11.25   Q 824.68 11.25 825.09 11.50   Q 825.82 11.96 825.30 12.65   Q 825.22 12.77 825.30 12.89   Z"/>
<path fill="#000000" d="   M 916.86 145.05   Q 916.57 147.01 916.76 149.00   Q 917.75 159.98 918.86 170.97   C 919.53 177.60 918.03 183.92 916.85 190.34   Q 916.72 191.00 916.05 191.00   L 861.49 191.00   A 0.50 0.49 90.0 0 1 861.00 190.50   Q 861.01 123.78 860.99 56.91   C 860.99 47.74 858.07 37.89 856.32 28.87   C 855.49 24.58 859.31 15.98 860.82 11.74   Q 860.99 11.26 861.51 11.26   Q 909.15 11.23 956.74 11.27   Q 963.77 11.28 973.03 13.28   C 993.62 17.74 1008.69 28.82 1014.52 50.00   Q 1020.43 71.46 1016.73 93.91   C 1013.72 112.22 1005.92 125.98 989.54 135.13   A 0.34 0.34 0.0 0 0 989.51 135.71   C 996.50 140.60 1002.69 151.42 1007.79 158.42   C 1012.59 165.01 1019.08 170.09 1025.12 175.47   Q 1025.50 175.80 1025.50 176.31   L 1025.50 190.47   A 0.53 0.53 0.0 0 1 1024.97 191.00   L 958.71 191.00   Q 958.18 191.00 957.90 190.54   L 930.50 144.94   Q 930.23 144.50 929.72 144.50   L 917.49 144.50   Q 916.93 144.50 916.86 145.05   Z   M 916.70 96.30   A 0.62 0.62 0.0 0 0 917.30 96.88   Q 930.35 97.41 943.56 96.46   C 958.67 95.36 962.04 86.73 959.73 72.55   C 958.53 65.23 952.91 60.92 945.72 60.29   Q 931.26 59.03 914.64 59.62   Q 914.25 59.64 914.27 60.03   L 916.70 96.30   Z"/>
<path fill="#000000" d="   M 1255.24 190.53   L 1255.25 60.25   A 0.48 0.47 88.3 0 0 1254.75 59.77   L 1205.00 62.23   Q 1204.50 62.25 1204.50 61.75   L 1204.50 11.75   Q 1204.50 11.25 1205.00 11.25   L 1362.50 11.25   A 0.50 0.50 0.0 0 1 1363.00 11.75   L 1363.00 61.75   A 0.48 0.47 -88.3 0 1 1362.50 62.23   L 1311.48 59.76   A 0.46 0.45 1.2 0 0 1311.00 60.21   Q 1310.99 101.46 1311.00 142.78   C 1311.00 152.50 1312.30 161.93 1313.35 171.56   C 1314.04 177.88 1312.37 184.22 1311.11 190.34   Q 1310.97 191.00 1310.30 191.00   L 1255.72 191.00   Q 1255.24 191.00 1255.24 190.53   Z"/>
<path fill="#000000" d="   M 94.39 125.37   C 195.96 138.40 297.64 151.69 399.25 165.00   Q 410.09 166.42 414.32 167.23   C 434.21 171.09 442.04 192.42 450.48 208.27   Q 450.72 208.73 450.20 208.75   Q 349.22 212.40 248.25 215.99   Q 242.55 216.20 233.96 214.43   C 214.65 210.45 194.73 200.22 177.49 189.74   C 147.76 171.67 119.00 150.38 94.08 126.01   A 0.37 0.37 0.0 0 1 94.39 125.37   Z"/>
<path fill="#000000" d="   M 800.96 387.31   C 754.22 372.41 744.54 321.02 750.79 278.90   C 755.76 245.37 774.62 221.72 808.23 212.49   Q 815.10 210.60 831.42 209.13   C 850.60 207.41 874.62 210.77 892.01 220.29   Q 919.89 235.54 927.99 267.01   Q 935.70 296.91 929.14 329.91   C 922.97 361.03 901.77 382.37 871.37 389.75   Q 835.74 398.40 800.96 387.31   Z   M 807.82 295.76   C 807.38 321.30 811.98 343.35 843.23 342.75   C 873.38 342.16 876.19 309.24 872.69 287.26   C 869.20 265.32 852.75 256.21 831.49 260.60   C 814.58 264.10 808.09 280.17 807.82 295.76   Z"/>
<path fill="#000000" d="   M 1001.54 387.14   C 970.14 378.04 953.64 352.55 950.44 321.06   C 945.21 269.46 957.76 221.25 1016.83 211.32   Q 1049.96 205.75 1083.01 212.34   Q 1086.38 213.01 1089.54 214.79   Q 1105.52 223.74 1121.25 233.09   A 0.50 0.50 0.0 0 1 1121.46 233.71   L 1104.12 277.32   Q 1103.85 278.00 1103.15 277.79   Q 1077.04 269.85 1051.01 261.99   C 1044.34 259.98 1034.11 261.93 1028.29 264.06   C 1006.73 271.94 1005.27 298.54 1009.26 317.37   C 1015.15 345.08 1040.30 347.80 1063.74 343.75   Q 1064.89 343.55 1067.72 342.31   Q 1068.25 342.08 1068.25 341.50   L 1068.25 328.75   Q 1068.25 328.25 1067.75 328.25   L 1046.75 328.25   Q 1046.25 328.25 1046.25 327.75   L 1046.25 288.50   A 0.50 0.50 0.0 0 1 1046.75 288.00   L 1126.29 288.00   Q 1126.92 288.00 1127.04 288.62   C 1128.14 293.94 1130.25 301.03 1129.13 306.30   C 1127.30 314.93 1124.32 324.49 1124.29 333.29   Q 1124.21 357.70 1124.27 382.14   Q 1124.27 382.71 1123.72 382.88   C 1094.09 392.16 1061.87 395.35 1030.99 392.65   Q 1015.99 391.34 1001.54 387.14   Z"/>
<path fill="#000000" d="   M 1321.68 328.81   C 1293.75 313.91 1245.94 313.70 1238.78 279.49   C 1232.78 250.84 1247.39 226.26 1274.37 216.19   C 1295.81 208.19 1318.46 207.96 1341.01 209.49   C 1345.63 209.81 1350.89 210.07 1354.89 212.71   Q 1369.12 222.14 1383.20 231.76   Q 1383.61 232.04 1383.46 232.52   L 1371.10 270.01   A 0.55 0.55 0.0 0 1 1370.44 270.37   Q 1338.21 262.18 1306.18 254.07   C 1303.27 253.33 1298.11 255.16 1296.53 257.86   C 1294.34 261.62 1297.21 266.43 1300.57 268.70   Q 1303.85 270.91 1311.27 273.70   C 1322.19 277.80 1333.97 281.54 1344.08 285.99   C 1366.41 295.79 1384.77 306.04 1386.41 333.43   C 1388.31 365.15 1365.29 386.22 1335.45 391.16   Q 1298.12 397.35 1260.97 386.05   Q 1250.40 382.83 1242.46 377.79   Q 1242.00 377.49 1242.00 376.95   L 1242.00 325.24   Q 1242.00 324.16 1242.95 324.66   Q 1274.64 341.45 1311.00 343.02   Q 1315.81 343.23 1321.06 341.56   C 1328.91 339.08 1328.20 332.29 1321.68 328.81   Z"/>
<path fill="#000000" d="   M 1724.03 317.75   C 1726.69 329.43 1735.86 338.41 1747.51 340.75   C 1772.58 345.78 1799.75 339.46 1823.40 327.86   Q 1824.00 327.57 1824.00 328.24   L 1824.00 377.77   A 0.69 0.68 -13.4 0 1 1823.62 378.38   Q 1800.73 389.80 1775.79 392.38   C 1741.59 395.91 1699.14 392.12 1678.31 359.94   C 1664.79 339.04 1662.10 310.92 1664.65 286.12   C 1671.28 221.57 1725.60 201.10 1782.76 211.27   C 1788.77 212.34 1795.79 213.15 1800.20 216.79   Q 1814.57 228.66 1828.78 240.71   Q 1829.15 241.03 1828.90 241.44   L 1804.04 282.31   A 0.58 0.58 0.0 0 1 1803.31 282.53   Q 1780.23 271.93 1757.22 261.40   Q 1755.14 260.45 1753.07 260.65   C 1724.38 263.49 1718.83 294.99 1724.03 317.75   Z"/>
<path fill="#000000" d="   M 1920.00 323.48   C 1896.78 316.01 1854.91 308.08 1849.29 278.69   C 1841.50 237.98 1872.84 214.37 1909.44 210.21   Q 1935.14 207.29 1960.74 210.58   Q 1963.02 210.87 1964.96 212.18   Q 1979.40 221.86 1993.80 231.59   A 0.99 0.99 0.0 0 1 1994.19 232.73   L 1981.91 269.93   Q 1981.72 270.51 1981.12 270.36   Q 1950.47 262.53 1919.48 254.72   C 1906.97 251.56 1901.32 263.42 1912.54 269.52   Q 1920.69 273.95 1939.09 279.87   Q 1954.76 284.91 1971.97 294.27   C 1986.09 301.95 1995.38 314.30 1996.86 330.52   C 2000.09 365.88 1976.32 386.21 1944.21 391.26   Q 1902.44 397.82 1863.00 383.00   Q 1858.56 381.33 1853.17 377.57   Q 1852.75 377.28 1852.75 376.77   L 1852.75 324.76   A 0.32 0.31 -76.3 0 1 1853.21 324.48   Q 1884.69 341.00 1920.07 342.80   C 1924.85 343.05 1935.68 342.89 1937.31 336.95   C 1939.29 329.78 1926.40 325.54 1920.00 323.48   Z"/>
<path fill="#000000" d="   M 659.95 342.44   A 0.45 0.45 0.0 0 0 660.43 342.92   Q 682.08 341.86 703.67 340.59   C 711.94 340.11 719.77 338.87 727.79 337.58   Q 728.40 337.48 728.72 338.01   L 750.57 374.46   A 0.52 0.51 49.3 0 1 750.53 375.03   L 738.62 390.58   Q 738.30 391.00 737.77 391.00   L 607.23 391.00   A 0.95 0.94 80.4 0 1 606.34 390.36   C 604.91 386.18 601.25 378.07 602.00 373.81   C 603.54 364.93 606.50 355.31 606.50 346.34   Q 606.50 279.08 606.50 211.73   A 0.48 0.48 0.0 0 1 606.98 211.25   L 661.98 211.25   A 0.46 0.45 -0.0 0 1 662.44 211.70   Q 662.66 256.13 662.36 300.50   C 662.27 314.05 660.73 328.46 659.95 342.44   Z"/>
<path fill="#000000" d="   M 1154.63 211.54   A 0.36 0.35 4.8 0 1 1154.98 211.25   L 1210.25 211.25   A 0.50 0.50 0.0 0 1 1210.75 211.75   L 1210.75 390.50   A 0.50 0.50 0.0 0 1 1210.25 391.00   L 1155.50 391.00   Q 1154.74 391.00 1154.74 390.25   Q 1154.75 324.85 1154.75 260.13   C 1154.74 250.27 1153.49 240.58 1152.55 230.75   C 1151.93 224.19 1153.47 218.08 1154.63 211.54   Z"/>
<path fill="#000000" d="   M 1452.75 259.76   L 1403.00 262.23   Q 1402.50 262.26 1402.50 261.75   L 1402.50 211.75   A 0.50 0.50 0.0 0 1 1403.00 211.25   L 1560.50 211.25   A 0.50 0.50 0.0 0 1 1561.00 211.75   L 1561.00 261.75   A 0.48 0.47 -88.3 0 1 1560.50 262.23   L 1509.47 259.77   A 0.44 0.44 0.0 0 0 1509.00 260.21   Q 1509.00 301.31 1509.00 342.48   C 1509.00 352.25 1510.30 361.74 1511.34 371.43   C 1512.03 377.87 1510.43 384.14 1509.10 390.35   Q 1508.96 391.00 1508.30 391.00   L 1453.72 391.00   A 0.48 0.47 -0.0 0 1 1453.24 390.53   L 1453.25 260.25   A 0.49 0.48 88.9 0 0 1452.75 259.76   Z"/>
<path fill="#000000" d="   M 1581.85 231.02   C 1581.17 224.14 1583.01 218.51 1583.75 211.87   Q 1583.82 211.25 1584.44 211.25   L 1639.50 211.25   A 0.50 0.50 0.0 0 1 1640.00 211.75   L 1640.00 390.50   A 0.50 0.50 0.0 0 1 1639.50 391.00   L 1584.48 391.00   A 0.48 0.48 0.0 0 1 1584.00 390.52   Q 1584.00 325.65 1584.00 260.70   C 1584.00 250.67 1582.83 240.95 1581.85 231.02   Z"/>
<path fill="#000000" d="   M 182.69 237.06   Q 181.20 236.15 180.79 234.95   Q 180.55 234.24 181.30 234.20   C 205.62 232.85 229.29 232.12 253.26 230.93   C 283.58 229.43 313.93 228.48 344.24 226.86   C 356.74 226.19 367.84 226.37 381.76 225.52   C 400.59 224.37 419.42 223.99 438.25 222.72   C 457.63 221.40 461.58 233.56 468.64 248.02   A 0.69 0.68 -19.4 0 1 468.17 248.99   Q 394.15 264.85 320.25 280.51   C 308.45 283.01 300.60 283.29 287.25 281.23   Q 273.88 279.16 254.21 271.99   Q 218.36 258.93 182.69 237.06   Z"/>
<path fill="#000000" d="   M 490.44 328.84   C 476.85 356.08 463.47 383.81 436.67 400.72   A 0.24 0.24 0.0 0 1 436.30 400.51   Q 438.40 353.60 440.54 306.75   Q 440.89 299.14 440.68 290.12   C 440.53 283.85 439.78 276.23 440.76 270.09   C 441.36 266.40 441.38 263.88 445.53 262.56   C 450.35 261.01 471.56 255.41 475.03 260.70   Q 483.45 273.51 491.64 286.44   C 500.60 300.59 497.59 314.53 490.44 328.84   Z"/>
<path fill="#000000" d="   M 382.48 287.25   C 385.03 276.65 396.72 272.87 406.47 271.41   Q 417.77 269.71 429.13 268.33   Q 429.61 268.27 429.59 268.76   C 427.32 310.40 407.38 362.28 362.36 374.33   A 0.51 0.50 89.4 0 1 361.74 373.72   Q 372.18 330.08 382.48 287.25   Z"/>
<path fill="#000000" d="   M 325.20 308.02   C 333.90 291.63 353.88 284.48 370.92 281.53   Q 371.41 281.44 371.33 281.94   C 366.34 310.75 341.82 338.58 313.31 345.80   Q 310.56 346.50 308.36 346.49   Q 307.75 346.49 307.97 345.93   Q 316.57 324.29 325.20 308.02   Z"/>
</svg>