<svg width="98" height="108" viewBox="0 0 98 108" fill="none" xmlns="http://www.w3.org/2000/svg">
<path fill-rule="evenodd" clip-rule="evenodd" d="M51.796 81.7148C44.5375 81.7148 38.6533 87.599 38.6533 94.8576C38.6533 102.116 44.5375 108 51.7961 108H84.6529C91.9114 108 97.7956 102.116 97.7956 94.8576C97.7956 87.599 91.9114 81.7148 84.6528 81.7148H51.796ZM58.3707 94.8582C58.3707 98.4874 55.4286 101.43 51.7993 101.43C48.1701 101.43 45.228 98.4874 45.228 94.8582C45.228 91.2289 48.1701 88.2868 51.7993 88.2868C55.4286 88.2868 58.3707 91.2289 58.3707 94.8582Z" fill="#28A4C1"/>
<path d="M63.1382 21.9045C63.1382 34.0021 53.3312 43.8091 41.2336 43.8091C29.1361 43.8091 19.3291 34.0021 19.3291 21.9045C19.3291 9.807 29.1361 0 41.2336 0C53.3312 0 63.1382 9.807 63.1382 21.9045Z" fill="#28A4C1"/>
<path opacity="0.25" fill-rule="evenodd" clip-rule="evenodd" d="M58.3306 56.515C61.9575 54.5298 66.5958 54.3685 69.2962 57.4995C74.0331 62.9916 77.281 69.8043 78.4127 77.3104H48.5184C39.5119 77.3104 32.2108 84.6116 32.2108 93.618C32.2108 94.5597 32.2906 95.4828 32.4438 96.3808H8.76084C3.92182 96.3808 -0.000976562 92.458 -0.000976562 87.619V83.2381C-0.000976562 73.4015 3.60111 64.4063 9.55818 57.4995C12.2586 54.3685 16.8969 54.5298 20.5238 56.515C26.1363 59.587 32.5778 61.3335 39.4272 61.3335C46.2766 61.3335 52.7181 59.587 58.3306 56.515Z" fill="#28A4C1"/>
</svg>
