<svg xmlns="http://www.w3.org/2000/svg" width="24" height="24" viewBox="0 0 24 24" fill="none">
<path opacity="0.3" d="M10.9607 12.9128H18.8607C19.4607 12.9128 19.9607 13.4128 19.8607 14.0128C19.2607 19.0128 14.4607 22.7128 9.26068 21.7128C5.66068 21.0128 2.86071 18.2128 2.16071 14.6128C1.16071 9.31283 4.96069 4.61281 9.86069 4.01281C10.4607 3.91281 10.9607 4.41281 10.9607 5.01281V12.9128Z" fill="#FFFFFF"/>
<path d="M12.9609 10.9128V3.01281C12.9609 2.41281 13.4609 1.91281 14.0609 2.01281C16.0609 2.21281 17.8609 3.11284 19.2609 4.61284C20.6609 6.01284 21.5609 7.91285 21.8609 9.81285C21.9609 10.4129 21.4609 10.9128 20.8609 10.9128H12.9609Z" fill="#FFFFFF"/>
</svg>