<svg xmlns="http://www.w3.org/2000/svg" width="35.93" height="32"  version="1.1" viewBox="0 0 2000 404">
<path fill="#0718c4" d="   M 548.78 -0.02   L 550.06 0.00   C 556.65 2.20 557.74 14.21 557.74 20.19   Q 557.76 202.34 557.75 384.50   C 557.75 387.79 556.82 392.34 555.89 395.10   C 553.22 403.04 546.62 404.93 543.40 395.78   C 541.85 391.39 541.26 387.29 541.26 382.26   Q 541.24 203.88 541.25 25.49   Q 541.25 13.57 541.54 12.04   Q 542.88 4.95 548.78 -0.02   Z"/>
<path fill="#24a8df" d="   M 0.93 1.29   C 125.11 33.96 249.45 66.09 373.46 99.38   C 391.22 104.15 400.17 114.40 409.18 129.69   Q 415.89 141.07 422.47 152.54   A 0.26 0.26 0.0 0 1 422.21 152.93   Q 293.96 136.49 165.75 119.99   Q 154.46 118.53 140.88 111.41   Q 113.14 96.88 87.60 78.83   C 60.31 59.55 34.53 39.31 11.78 15.98   Q 6.34 10.40 0.66 1.66   Q 0.31 1.13 0.93 1.29   Z"/>
<path fill="#0718c4" d="   M 1100.81 67.44   Q 1104.29 70.37 1111.66 73.14   C 1144.34 85.45 1191.20 94.91 1188.52 140.30   C 1186.52 174.20 1157.67 189.36 1127.62 192.50   Q 1089.26 196.52 1053.03 182.52   Q 1049.26 181.06 1044.42 177.60   Q 1044.00 177.30 1044.00 176.78   L 1044.00 124.53   A 0.37 0.37 0.0 0 1 1044.55 124.20   Q 1076.59 141.58 1113.01 142.78   Q 1119.73 143.00 1124.94 140.97   C 1129.73 139.11 1129.67 132.71 1125.93 130.05   Q 1121.63 126.98 1111.97 123.83   Q 1098.28 119.35 1084.62 114.78   C 1055.76 105.12 1034.63 93.09 1040.20 57.36   C 1044.99 26.67 1074.77 12.51 1102.45 9.68   Q 1127.24 7.14 1151.90 10.60   Q 1154.25 10.93 1156.28 12.29   Q 1170.79 21.95 1185.19 31.75   Q 1185.60 32.04 1185.45 32.52   L 1173.09 69.98   Q 1172.91 70.52 1172.37 70.38   Q 1141.25 62.40 1110.24 54.64   C 1106.17 53.62 1102.56 53.89 1099.60 56.61   C 1096.43 59.54 1098.01 65.08 1100.81 67.44   Z"/>
<path fill="#0718c4" d="   M 1204.49 11.69   Q 1204.49 11.25 1204.93 11.25   L 1362.69 11.25   A 0.31 0.31 0.0 0 1 1363.00 11.56   L 1363.00 61.75   A 0.48 0.47 -88.3 0 1 1362.50 62.23   L 1311.48 59.77   A 0.46 0.45 1.2 0 0 1311.00 60.22   Q 1311.00 101.37 1311.00 142.60   C 1311.00 152.55 1312.34 162.21 1313.40 172.08   C 1314.05 178.16 1312.24 184.55 1311.10 190.50   Q 1311.01 191.00 1310.50 191.00   L 1256.00 191.00   A 0.76 0.75 0.0 0 1 1255.24 190.25   L 1255.25 60.25   A 0.48 0.48 0.0 0 0 1254.75 59.77   L 1205.00 62.22   Q 1204.51 62.25 1204.51 61.75   L 1204.49 11.69   Z"/>
<path fill="#0718c4" d="   M 659.95 60.06   L 662.33 79.20   Q 662.40 79.75 662.96 79.75   L 725.04 79.75   A 0.48 0.48 0.0 0 1 725.52 80.23   L 725.49 121.00   Q 725.49 121.50 724.99 121.50   C 710.41 121.51 695.71 122.01 681.21 120.72   Q 672.08 119.91 663.13 119.05   A 0.63 0.62 2.1 0 0 662.45 119.68   C 662.52 132.52 661.87 145.41 663.23 158.03   C 663.96 164.81 665.72 172.77 664.53 179.49   Q 663.57 184.94 662.52 190.39   Q 662.40 191.00 661.78 191.00   L 606.99 191.00   A 0.49 0.49 0.0 0 1 606.50 190.51   Q 606.50 123.40 606.50 56.16   C 606.50 47.16 603.53 37.49 602.02 28.57   C 601.28 24.17 604.86 16.04 606.44 11.78   Q 606.64 11.25 607.21 11.25   L 736.75 11.25   Q 737.28 11.25 737.74 11.52   L 749.53 18.47   A 0.65 0.64 -64.7 0 1 749.80 19.25   L 733.36 61.65   A 0.48 0.47 13.4 0 1 732.86 61.95   C 723.29 61.00 713.77 59.56 704.26 59.52   Q 682.34 59.43 660.41 59.53   Q 659.88 59.53 659.95 60.06   Z"/>
<path fill="#0718c4" d="   M 767.10 30.13   C 766.50 24.37 768.05 17.36 769.24 11.69   Q 769.33 11.25 769.78 11.25   L 824.78 11.25   Q 825.25 11.25 825.25 11.72   L 825.25 190.37   Q 825.25 191.00 824.63 191.00   L 769.57 191.00   A 0.32 0.32 0.0 0 1 769.25 190.68   Q 769.25 124.68 769.25 58.65   C 769.25 49.01 768.09 39.67 767.10 30.13   Z"/>
<path fill="#0718c4" d="   M 856.32 28.92   C 855.53 24.92 859.24 15.63 860.85 11.73   Q 861.04 11.26 861.55 11.26   Q 903.66 11.22 945.74 11.27   C 961.72 11.29 973.90 12.18 987.17 17.57   C 1003.35 24.15 1013.73 40.64 1016.30 57.93   C 1018.66 73.79 1019.00 90.07 1014.37 104.57   Q 1008.39 123.26 989.78 135.47   A 0.25 0.24 49.2 0 0 989.76 135.86   C 997.14 142.11 1002.76 151.46 1008.46 159.32   C 1012.96 165.53 1019.55 170.41 1025.19 175.59   Q 1025.50 175.87 1025.50 176.29   L 1025.50 190.25   Q 1025.50 191.00 1024.75 191.00   L 958.78 191.00   Q 958.15 191.00 957.82 190.46   L 930.50 144.94   Q 930.24 144.50 929.72 144.50   L 917.47 144.50   Q 916.89 144.50 916.82 145.08   Q 916.57 147.18 916.76 149.25   Q 917.77 160.19 918.88 171.13   C 919.54 177.68 917.96 184.11 916.83 190.50   Q 916.75 191.00 916.24 191.00   L 861.53 191.00   Q 860.98 191.00 860.98 190.45   Q 861.04 123.68 860.98 57.01   C 860.98 47.79 858.10 37.98 856.32 28.92   Z   M 945.30 96.32   C 957.92 95.27 960.35 88.00 960.31 76.74   Q 960.24 61.31 943.77 60.06   Q 931.18 59.10 914.66 59.61   Q 914.24 59.63 914.27 60.04   L 916.72 96.25   Q 916.76 96.85 917.36 96.88   Q 931.46 97.47 945.30 96.32   Z"/>
<path fill="#24a8df" d="   M 114.25 144.50   C 108.04 139.40 101.22 133.40 94.31 126.15   Q 93.39 125.20 94.70 125.37   Q 246.77 145.11 399.44 165.02   C 413.04 166.80 422.82 167.31 431.26 176.50   C 438.93 184.83 444.85 197.60 450.47 208.29   Q 450.71 208.75 450.20 208.77   Q 348.97 212.40 247.75 216.02   Q 242.48 216.21 234.10 214.43   C 218.72 211.18 202.98 204.14 189.27 196.51   C 162.56 181.62 137.13 163.30 114.25 144.50   Z"/>
<path fill="#0718c4" d="   M 864.28 391.34   C 817.14 399.78 763.32 385.12 752.32 331.21   C 742.24 281.76 753.72 223.89 811.70 211.92   C 834.71 207.16 860.39 207.43 882.27 215.86   C 925.96 232.70 935.54 276.22 930.98 318.50   C 926.70 358.15 903.63 384.30 864.28 391.34   Z   M 819.19 335.81   C 830.85 345.64 855.39 345.63 865.43 332.69   C 875.80 319.33 875.27 296.14 871.17 280.57   C 866.60 263.19 849.09 257.40 832.85 260.30   C 821.62 262.30 813.78 269.46 810.35 280.22   C 805.42 295.67 805.79 324.53 819.19 335.81   Z"/>
<path fill="#0718c4" d="   M 1033.50 392.84   C 1002.06 390.45 971.78 381.18 957.98 349.79   C 949.61 330.74 948.28 309.05 949.77 288.25   C 951.94 257.88 964.16 231.81 992.43 218.70   C 1018.77 206.47 1054.81 206.75 1083.07 212.35   Q 1086.38 213.01 1089.47 214.74   Q 1105.45 223.70 1121.21 233.09   Q 1121.61 233.33 1121.44 233.77   L 1104.06 277.49   Q 1103.85 278.01 1103.31 277.85   Q 1077.57 270.02 1051.57 262.13   Q 1047.89 261.02 1044.61 261.17   C 1015.97 262.49 1005.83 279.85 1007.82 306.93   C 1008.83 320.75 1012.19 333.17 1024.29 339.95   C 1036.16 346.61 1055.09 346.71 1067.72 342.46   Q 1068.25 342.28 1068.25 341.73   L 1068.25 329.00   Q 1068.25 328.25 1067.50 328.25   L 1046.75 328.25   Q 1046.25 328.25 1046.25 327.75   L 1046.25 288.50   A 0.50 0.50 0.0 0 1 1046.75 288.00   L 1126.49 288.00   Q 1126.95 288.00 1127.04 288.46   C 1128.06 293.74 1130.26 300.99 1129.14 306.24   C 1127.31 314.88 1124.31 324.46 1124.28 333.27   Q 1124.21 357.83 1124.26 382.21   A 0.68 0.66 82.0 0 1 1123.79 382.86   Q 1079.57 396.34 1033.50 392.84   Z"/>
<path fill="#0718c4" d="   M 1270.83 310.68   C 1254.59 304.54 1240.99 294.50 1238.14 276.22   C 1233.53 246.65 1251.01 223.17 1278.78 214.53   C 1300.20 207.88 1322.70 207.93 1344.67 210.02   C 1348.19 210.36 1351.17 210.23 1354.28 212.30   Q 1368.79 221.95 1383.20 231.75   Q 1383.62 232.04 1383.46 232.52   L 1371.10 269.99   Q 1370.94 270.47 1370.44 270.35   Q 1339.45 262.56 1308.59 254.67   C 1294.96 251.18 1290.98 264.69 1302.96 270.05   C 1321.40 278.30 1340.43 283.67 1357.70 292.28   C 1374.72 300.76 1385.09 313.83 1386.42 333.23   C 1388.67 366.08 1363.99 386.86 1333.50 391.49   Q 1291.41 397.87 1252.43 383.09   Q 1247.63 381.27 1242.43 377.60   Q 1242.00 377.30 1242.00 376.77   L 1242.00 324.99   A 0.46 0.45 -76.5 0 1 1242.66 324.58   Q 1274.21 341.18 1309.83 342.79   C 1314.24 342.99 1324.48 342.74 1326.25 337.56   C 1327.73 333.21 1325.08 330.49 1321.26 328.54   Q 1313.21 324.42 1307.25 322.72   Q 1288.79 317.47 1270.83 310.68   Z"/>
<path fill="#0718c4" d="   M 1741.01 392.73   C 1679.68 387.34 1659.68 343.26 1664.55 287.39   C 1670.69 216.83 1734.47 198.60 1793.83 213.68   Q 1798.17 214.79 1800.88 217.10   Q 1814.72 228.89 1828.67 240.63   A 0.72 0.72 0.0 0 1 1828.82 241.56   L 1803.96 282.42   A 0.45 0.44 -61.8 0 1 1803.39 282.60   Q 1780.33 271.96 1757.31 261.45   Q 1755.13 260.45 1752.99 260.66   C 1734.98 262.45 1724.18 277.38 1722.68 294.44   C 1720.59 318.10 1726.63 339.15 1754.04 341.68   C 1778.92 343.97 1800.73 338.95 1823.39 327.86   Q 1824.00 327.57 1824.00 328.24   L 1824.00 377.69   Q 1824.00 378.09 1823.64 378.27   C 1798.05 391.35 1769.43 395.23 1741.01 392.73   Z"/>
<path fill="#0718c4" d="   M 1866.83 303.18   C 1847.22 291.17 1844.22 266.47 1852.01 246.95   C 1867.34 208.57 1918.34 207.10 1952.00 209.53   C 1955.95 209.82 1961.73 210.04 1965.32 212.44   Q 1979.69 222.04 1994.00 231.72   A 0.69 0.68 26.1 0 1 1994.27 232.50   L 1981.92 269.92   Q 1981.72 270.52 1981.11 270.36   Q 1950.39 262.48 1919.30 254.69   C 1904.28 250.92 1902.59 265.70 1915.21 270.80   C 1932.83 277.93 1945.60 281.82 1962.17 289.33   C 1985.82 300.05 1998.60 314.10 1997.10 341.45   C 1996.00 361.32 1983.06 377.56 1965.01 385.32   C 1934.33 398.49 1893.46 394.69 1862.31 382.71   Q 1858.31 381.17 1853.17 377.57   Q 1852.75 377.28 1852.75 376.76   L 1852.75 324.99   Q 1852.75 324.35 1853.33 324.62   C 1865.95 330.55 1874.83 334.44 1891.23 338.65   C 1897.78 340.33 1938.27 349.14 1937.47 335.06   C 1937.10 328.60 1923.00 324.30 1917.01 322.47   C 1899.98 317.25 1881.89 312.41 1866.83 303.18   Z"/>
<path fill="#0718c4" d="   M 1452.75 259.77   L 1403.00 262.22   Q 1402.50 262.25 1402.50 261.75   L 1402.50 211.72   Q 1402.50 211.25 1402.97 211.25   L 1560.25 211.25   Q 1561.00 211.25 1561.00 212.00   L 1561.00 261.51   Q 1561.00 262.27 1560.24 262.23   L 1509.48 259.77   A 0.46 0.45 1.2 0 0 1509.00 260.22   Q 1508.99 301.42 1509.00 342.70   C 1509.00 352.52 1510.32 362.04 1511.39 371.77   C 1512.08 378.01 1510.30 384.44 1509.08 390.52   Q 1508.99 391.00 1508.50 391.00   L 1453.72 391.00   A 0.48 0.47 -0.0 0 1 1453.24 390.53   L 1453.25 260.25   A 0.48 0.48 0.0 0 0 1452.75 259.77   Z"/>
<path fill="#0718c4" d="   M 660.48 342.72   Q 663.39 342.83 665.00 342.74   Q 684.46 341.67 703.91 340.59   C 712.12 340.13 719.99 338.80 728.04 337.55   A 0.58 0.58 0.0 0 1 728.61 337.82   L 750.52 374.38   A 0.64 0.63 48.4 0 1 750.48 375.09   L 738.63 390.58   Q 738.31 391.00 737.78 391.00   L 607.21 391.00   Q 606.60 391.00 606.40 390.42   C 604.88 386.13 601.29 378.07 602.01 373.79   C 603.53 364.91 606.50 355.31 606.50 346.36   Q 606.50 279.09 606.50 211.73   A 0.48 0.48 0.0 0 1 606.98 211.25   L 662.01 211.25   A 0.43 0.42 -0.0 0 1 662.44 211.67   Q 662.67 256.19 662.35 300.75   C 662.25 314.13 660.78 328.31 659.95 342.12   Q 659.91 342.70 660.48 342.72   Z"/>
<path fill="#0718c4" d="   M 1154.60 211.56   A 0.37 0.36 -85.4 0 1 1154.96 211.25   L 1210.25 211.25   A 0.50 0.50 0.0 0 1 1210.75 211.75   L 1210.75 390.50   A 0.50 0.50 0.0 0 1 1210.25 391.00   L 1155.50 391.00   Q 1154.74 391.00 1154.74 390.25   Q 1154.76 324.53 1154.74 259.49   C 1154.74 249.86 1153.44 240.30 1152.54 230.65   C 1151.94 224.20 1153.52 218.02 1154.60 211.56   Z"/>
<path fill="#0718c4" d="   M 1583.92 211.49   A 0.30 0.30 0.0 0 1 1584.21 211.25   L 1639.50 211.25   A 0.50 0.50 0.0 0 1 1640.00 211.75   L 1640.00 390.50   A 0.50 0.50 0.0 0 1 1639.50 391.00   L 1584.48 391.00   A 0.48 0.48 0.0 0 1 1584.00 390.52   Q 1584.00 325.20 1584.00 259.79   C 1584.00 250.04 1582.76 240.46 1581.83 230.74   C 1581.21 224.18 1582.74 217.90 1583.92 211.49   Z"/>
<path fill="#24a8df" d="   M 182.69 237.06   Q 181.21 236.16 180.81 235.00   Q 180.58 234.32 181.29 234.28   Q 189.84 233.75 198.34 233.47   C 215.00 232.93 231.57 231.75 248.21 231.31   C 251.20 231.23 254.58 230.68 257.31 230.58   Q 275.78 229.90 294.25 229.24   C 295.37 229.20 296.78 228.74 297.94 228.71   Q 323.28 228.09 339.50 227.18   C 352.40 226.45 367.14 226.18 377.08 225.73   Q 409.79 224.24 442.50 222.72   C 457.88 222.01 462.99 236.71 468.63 247.91   A 0.61 0.60 60.9 0 1 468.41 248.70   Q 467.28 249.40 465.80 249.72   Q 393.02 265.07 320.25 280.52   C 310.90 282.51 305.18 283.22 295.28 282.23   C 281.65 280.86 267.83 276.90 254.97 272.24   Q 218.53 259.03 182.69 237.06   Z"/>
<path fill="#24a8df" d="   M 473.82 259.27   A 1.11 1.10 -4.8 0 1 474.30 259.67   Q 482.69 272.16 490.50 285.08   C 497.76 297.08 499.74 307.94 493.82 321.04   Q 483.69 343.45 471.25 364.68   Q 458.28 386.81 436.72 400.69   A 0.26 0.25 -15.9 0 1 436.32 400.47   Q 438.39 353.63 440.54 306.82   Q 440.88 299.56 440.69 289.55   C 440.55 282.16 439.82 274.32 441.32 267.02   C 441.83 264.56 443.12 263.33 445.59 262.54   C 452.09 260.47 467.57 256.64 473.82 259.27   Z"/>
<path fill="#24a8df" d="   M 382.50 287.25   C 386.68 269.96 415.70 270.49 429.25 268.17   A 0.31 0.31 0.0 0 1 429.61 268.49   C 427.38 309.92 407.57 362.22 362.57 374.23   Q 361.55 374.50 361.80 373.48   Q 372.14 330.07 382.50 287.25   Z"/>
<path fill="#24a8df" d="   M 323.99 310.29   C 333.31 291.90 352.46 284.69 370.92 281.55   Q 371.45 281.46 371.35 281.98   C 366.26 310.07 342.82 337.77 314.50 345.49   Q 311.11 346.42 308.29 346.52   Q 307.71 346.54 307.93 346.00   Q 315.70 326.64 323.99 310.29   Z"/>
</svg>