<svg xmlns="http://www.w3.org/2000/svg" width="35.93" height="32" version="1.1" viewBox="0 0 2000 404">
<path fill="#ffffff" d="   M 548.78 -0.02   L 550.06 0.00   C 556.68 2.28 557.74 14.08 557.74 20.08   Q 557.77 201.02 557.74 381.96   C 557.74 386.03 555.87 405.30 548.03 401.70   C 543.52 399.64 541.26 389.76 541.26 385.69   Q 541.24 205.59 541.26 25.49   Q 541.26 13.59 541.55 12.04   Q 542.89 4.96 548.78 -0.02   Z"/>
<path fill="#ffffff" d="   M 0.85 1.27   C 124.49 33.78 248.13 66.21 371.81 98.53   C 388.51 102.89 398.67 112.36 407.44 126.79   Q 415.14 139.46 422.32 152.43   Q 422.63 152.99 422.00 152.90   Q 297.40 136.96 172.87 120.90   Q 161.88 119.48 155.41 117.35   Q 146.36 114.37 137.45 109.53   Q 105.70 92.31 77.83 71.91   C 53.89 54.38 31.12 36.09 11.08 15.18   Q 6.00 9.87 0.62 1.60   Q 0.32 1.14 0.85 1.27   Z"/>
<path fill="#ffffff" d="   M 1040.50 55.76   C 1044.51 34.17 1062.76 19.20 1083.27 13.53   C 1105.72 7.34 1129.30 7.51 1151.93 10.59   Q 1154.26 10.90 1156.24 12.24   Q 1170.73 21.98 1185.18 31.72   Q 1185.61 32.01 1185.45 32.51   L 1173.01 70.19   A 0.38 0.38 0.0 0 1 1172.55 70.44   Q 1140.26 62.17 1107.94 54.04   C 1105.41 53.40 1100.68 55.07 1098.97 57.26   C 1094.79 62.61 1101.49 68.77 1106.59 70.89   C 1123.26 77.79 1140.84 83.26 1156.53 90.76   C 1170.95 97.66 1183.49 107.85 1187.17 124.07   C 1189.73 135.41 1188.87 148.17 1184.00 158.80   C 1163.03 204.58 1088.42 196.75 1051.51 181.85   Q 1048.69 180.72 1044.39 177.53   Q 1044.00 177.24 1044.00 176.75   L 1044.00 124.53   A 0.40 0.40 0.0 0 1 1044.59 124.18   Q 1073.69 140.01 1106.68 142.64   C 1112.40 143.09 1124.31 143.46 1127.76 138.71   C 1133.88 130.24 1114.07 124.41 1109.54 123.00   C 1092.10 117.55 1072.74 112.04 1057.50 102.78   C 1040.77 92.60 1037.16 73.81 1040.50 55.76   Z"/>
<path fill="#ffffff" d="   M 659.96 60.05   L 662.33 79.20   Q 662.40 79.75 662.95 79.75   L 725.03 79.75   Q 725.49 79.75 725.49 80.22   L 725.53 121.05   Q 725.53 121.49 725.09 121.49   C 710.40 121.52 695.67 122.01 681.03 120.70   Q 671.98 119.88 663.05 119.06   A 0.54 0.54 0.0 0 0 662.46 119.61   C 662.51 132.64 661.88 145.59 663.28 158.39   C 664.01 165.04 665.77 173.05 664.52 179.62   Q 663.49 185.06 662.51 190.51   A 0.59 0.58 4.6 0 1 661.93 191.00   L 606.98 191.00   A 0.48 0.48 0.0 0 1 606.50 190.52   Q 606.50 123.38 606.50 56.16   C 606.50 47.16 603.53 37.48 602.03 28.56   C 601.28 24.13 604.85 16.05 606.46 11.77   Q 606.65 11.25 607.21 11.25   L 736.77 11.25   Q 737.30 11.25 737.76 11.52   L 749.53 18.47   A 0.65 0.64 -64.7 0 1 749.80 19.25   L 733.36 61.65   A 0.49 0.49 0.0 0 1 732.85 61.97   C 722.87 60.89 713.05 59.52 703.01 59.50   Q 681.72 59.46 660.43 59.52   Q 659.89 59.52 659.96 60.05   Z"/>
<path fill="#ffffff" d="   M 767.10 30.12   C 766.54 24.66 767.91 17.21 769.19 11.85   Q 769.34 11.25 769.96 11.25   L 824.74 11.25   Q 825.29 11.25 825.29 11.80   L 825.30 190.48   Q 825.30 191.00 824.77 191.00   L 769.57 191.00   A 0.32 0.32 0.0 0 1 769.25 190.68   Q 769.25 125.02 769.25 59.33   C 769.25 49.43 768.11 39.89 767.10 30.12   Z"/>
<path fill="#ffffff" d="   M 945.73 11.26   C 988.02 11.28 1014.02 23.25 1017.74 69.18   C 1019.83 95.02 1014.02 121.36 989.67 135.02   Q 989.17 135.29 989.60 135.67   C 997.19 142.25 1002.78 151.56 1008.73 159.67   C 1013.13 165.68 1019.62 170.40 1025.08 175.48   Q 1025.50 175.87 1025.50 176.44   L 1025.50 190.50   A 0.50 0.50 0.0 0 1 1025.00 191.00   L 958.71 191.00   Q 958.17 191.00 957.89 190.54   L 930.50 144.94   Q 930.23 144.50 929.72 144.50   L 917.47 144.50   Q 916.89 144.50 916.82 145.08   Q 916.57 147.05 916.75 149.00   Q 917.75 160.12 918.90 171.23   C 919.57 177.70 917.94 184.15 916.87 190.48   Q 916.78 191.00 916.25 191.00   L 861.51 191.00   Q 861.00 191.00 861.00 190.49   Q 861.00 123.68 860.99 56.91   C 860.99 47.72 858.06 37.87 856.30 28.84   C 855.48 24.62 859.33 15.94 860.82 11.74   Q 860.99 11.26 861.51 11.26   Q 903.64 11.23 945.73 11.26   Z   M 945.65 96.28   C 952.87 95.69 958.68 92.24 959.88 84.55   C 961.57 73.71 959.44 61.83 946.40 60.38   Q 933.22 58.91 914.62 59.67   Q 914.25 59.68 914.27 60.05   L 916.74 96.46   Q 916.77 96.87 917.19 96.89   Q 931.47 97.44 945.65 96.28   Z"/>
<path fill="#ffffff" d="   M 1254.74 59.76   L 1205.10 62.23   Q 1204.50 62.26 1204.50 61.66   L 1204.49 11.76   Q 1204.49 11.25 1204.99 11.25   L 1362.50 11.25   Q 1363.00 11.25 1363.00 11.75   L 1363.00 61.76   Q 1363.00 62.27 1362.49 62.25   L 1311.73 59.77   Q 1311.00 59.74 1311.00 60.46   Q 1311.00 101.22 1311.00 142.26   C 1311.00 152.33 1312.34 162.09 1313.41 172.07   C 1314.06 178.17 1312.25 184.55 1311.10 190.51   Q 1311.00 191.00 1310.50 191.00   L 1255.72 191.00   A 0.48 0.47 0.0 0 1 1255.24 190.53   L 1255.25 60.24   Q 1255.25 59.74 1254.74 59.76   Z"/>
<path fill="#ffffff" d="   M 94.41 125.39   C 195.49 138.34 296.71 151.52 397.82 164.83   C 413.38 166.88 422.70 167.23 431.61 176.59   C 439.04 184.39 445.21 198.46 450.73 208.67   Q 450.93 209.04 450.51 209.00   Q 450.35 208.99 450.25 208.89   Q 450.12 208.77 449.95 208.77   Q 349.10 212.38 248.25 216.00   C 231.21 216.61 210.01 207.48 193.37 198.59   C 157.41 179.37 123.51 154.34 94.08 126.07   A 0.40 0.40 0.0 0 1 94.41 125.39   Z"/>
<path fill="#ffffff" d="   M 810.39 389.89   C 772.99 380.88 753.05 354.06 750.03 316.00   C 747.37 282.47 751.76 246.19 780.87 225.34   Q 796.33 214.26 816.74 210.99   C 862.75 203.62 911.23 214.87 926.91 263.57   C 932.37 280.52 932.94 300.77 931.06 318.51   C 927.73 349.91 910.79 377.16 880.01 387.29   Q 846.03 398.48 810.39 389.89   Z   M 807.70 304.20   C 808.27 322.72 814.38 340.29 835.51 342.42   C 872.64 346.18 877.27 312.36 872.22 285.03   C 868.64 265.62 852.76 256.97 834.03 260.06   C 811.13 263.83 807.10 284.72 807.70 304.20   Z"/>
<path fill="#ffffff" d="   M 1067.74 328.25   L 1046.75 328.25   Q 1046.25 328.25 1046.25 327.75   L 1046.25 288.50   A 0.50 0.50 0.0 0 1 1046.75 288.00   L 1126.49 288.00   Q 1126.97 288.00 1127.06 288.47   C 1128.04 293.69 1130.26 301.02 1129.17 306.16   C 1127.33 314.82 1124.32 324.44 1124.29 333.27   Q 1124.21 357.68 1124.27 382.10   Q 1124.27 382.65 1123.75 382.83   Q 1122.32 383.31 1119.99 383.98   Q 1076.10 396.61 1030.51 392.47   C 999.80 389.69 971.45 380.24 957.85 349.67   C 951.26 334.85 949.62 318.94 949.23 302.26   C 947.97 248.78 973.75 214.95 1027.99 209.64   Q 1056.10 206.89 1083.67 212.52   Q 1086.93 213.19 1089.98 214.94   Q 1105.59 223.93 1121.39 233.12   A 0.34 0.33 -64.8 0 1 1121.53 233.54   L 1104.05 277.50   Q 1103.85 278.01 1103.33 277.85   Q 1077.23 269.92 1051.27 262.07   Q 1047.70 260.99 1044.50 261.16   C 1027.45 262.07 1012.30 269.14 1008.99 287.27   Q 1005.69 305.37 1010.10 321.18   C 1014.84 338.18 1030.15 345.33 1046.65 345.27   C 1053.82 345.24 1061.02 344.73 1067.72 342.42   Q 1068.27 342.23 1068.27 341.65   L 1068.24 328.75   Q 1068.24 328.25 1067.74 328.25   Z"/>
<path fill="#ffffff" d="   M 1268.95 309.81   C 1251.24 302.13 1239.55 292.80 1237.76 272.77   C 1233.83 228.72 1272.59 210.89 1309.57 209.20   C 1323.33 208.56 1336.70 208.70 1349.71 210.52   Q 1352.07 210.85 1354.09 212.19   Q 1368.69 221.90 1383.19 231.74   Q 1383.61 232.03 1383.45 232.51   L 1371.08 270.02   Q 1370.93 270.48 1370.45 270.36   Q 1339.42 262.54 1308.50 254.66   C 1294.89 251.19 1291.37 265.03 1302.56 269.99   C 1315.36 275.67 1330.47 280.02 1343.98 285.92   C 1365.88 295.50 1384.77 305.92 1386.36 333.11   C 1388.54 370.51 1359.48 389.02 1326.00 392.50   C 1299.76 395.23 1270.27 391.81 1246.16 380.09   C 1244.85 379.44 1243.58 378.43 1242.41 377.57   Q 1242.00 377.27 1242.00 376.77   L 1242.00 324.76   A 0.31 0.31 0.0 0 1 1242.45 324.49   Q 1274.29 341.22 1310.07 342.81   C 1314.68 343.02 1322.81 342.48 1325.63 338.90   C 1332.20 330.56 1312.66 324.48 1307.01 322.71   C 1294.23 318.70 1281.26 315.14 1268.95 309.81   Z"/>
<path fill="#ffffff" d="   M 1724.03 389.95   C 1690.08 383.02 1670.22 357.60 1665.51 324.00   C 1659.40 280.49 1668.88 234.23 1713.98 216.22   C 1739.07 206.21 1769.64 207.06 1795.25 214.02   C 1798.13 214.80 1799.94 216.53 1802.25 218.46   Q 1815.45 229.50 1828.67 240.61   Q 1829.15 241.01 1828.82 241.55   L 1804.05 282.30   Q 1803.76 282.77 1803.26 282.54   Q 1780.26 271.94 1757.32 261.45   Q 1755.14 260.45 1752.99 260.66   C 1725.24 263.43 1719.45 292.73 1723.58 315.25   Q 1727.45 336.33 1747.51 340.71   C 1771.92 346.05 1800.15 339.34 1823.33 327.83   Q 1824.00 327.50 1824.00 328.25   L 1824.00 377.70   Q 1824.00 378.13 1823.61 378.32   C 1792.84 393.89 1757.47 396.77 1724.03 389.95   Z"/>
<path fill="#ffffff" d="   M 1862.69 300.06   C 1854.59 293.92 1850.27 285.84 1848.89 275.45   C 1845.22 247.96 1859.03 227.23 1883.62 216.73   C 1903.86 208.08 1928.15 207.93 1950.76 209.59   C 1956.69 210.02 1961.37 209.76 1966.11 212.94   Q 1980.14 222.38 1993.99 231.69   A 0.72 0.72 0.0 0 1 1994.26 232.51   L 1981.84 270.17   A 0.40 0.39 16.0 0 1 1981.36 270.43   Q 1948.98 262.11 1916.50 254.00   Q 1915.05 253.63 1912.04 254.42   Q 1905.31 256.19 1907.03 263.25   C 1908.16 267.87 1914.01 270.45 1919.22 272.49   C 1934.44 278.45 1949.29 282.96 1964.72 290.54   C 1981.72 298.90 1994.45 309.34 1996.68 329.21   C 2000.65 364.50 1977.14 386.38 1944.44 391.45   C 1916.53 395.77 1878.27 393.32 1853.17 377.76   Q 1852.75 377.49 1852.75 377.00   L 1852.75 324.77   Q 1852.75 324.25 1853.21 324.49   C 1874.21 335.42 1896.94 341.88 1920.68 342.85   C 1925.44 343.04 1934.19 342.69 1936.79 338.04   C 1941.46 329.67 1922.23 323.99 1917.24 322.52   C 1898.89 317.13 1877.97 311.64 1862.69 300.06   Z"/>
<path fill="#ffffff" d="   M 660.47 342.71   Q 663.59 342.86 666.69 342.68   Q 683.79 341.70 700.90 340.78   C 710.44 340.27 718.92 339.09 727.93 337.53   A 0.71 0.70 69.4 0 1 728.65 337.86   L 750.56 374.46   A 0.49 0.49 0.0 0 1 750.53 375.02   L 738.61 390.58   Q 738.29 391.00 737.77 391.00   L 607.02 391.00   Q 606.56 391.00 606.42 390.57   C 604.39 384.61 601.46 377.92 601.97 374.79   C 603.46 365.71 606.48 355.60 606.48 346.50   Q 606.52 279.16 606.49 211.73   A 0.49 0.48 -0.0 0 1 606.98 211.25   L 662.02 211.25   A 0.48 0.48 0.0 0 1 662.50 211.73   Q 662.49 254.21 662.51 296.76   C 662.52 311.74 660.92 326.98 659.94 342.12   Q 659.91 342.68 660.47 342.71   Z"/>
<path fill="#ffffff" d="   M 1154.60 211.56   A 0.37 0.36 -85.4 0 1 1154.96 211.25   L 1210.25 211.25   A 0.50 0.50 0.0 0 1 1210.75 211.75   L 1210.75 390.50   A 0.50 0.50 0.0 0 1 1210.25 391.00   L 1155.26 391.00   Q 1154.75 391.00 1154.75 390.49   Q 1154.74 325.14 1154.75 259.84   C 1154.75 250.07 1153.45 240.41 1152.54 230.64   C 1151.94 224.20 1153.52 218.01 1154.60 211.56   Z"/>
<path fill="#ffffff" d="   M 1452.74 259.75   L 1403.01 262.24   Q 1402.51 262.27 1402.51 261.76   L 1402.49 211.76   Q 1402.49 211.25 1402.99 211.25   L 1560.50 211.25   Q 1561.00 211.25 1561.00 211.75   L 1561.00 261.76   Q 1561.00 262.27 1560.49 262.24   L 1509.51 259.76   A 0.49 0.48 1.1 0 0 1509.00 260.24   Q 1508.99 301.51 1509.01 342.94   C 1509.01 352.72 1510.38 362.30 1511.42 372.04   C 1512.06 378.16 1510.26 384.53 1509.10 390.50   Q 1509.00 391.00 1508.50 391.00   L 1453.75 391.00   A 0.50 0.50 0.0 0 1 1453.25 390.50   L 1453.25 260.24   Q 1453.25 259.73 1452.74 259.75   Z"/>
<path fill="#ffffff" d="   M 1581.82 230.73   C 1581.19 224.05 1582.97 218.33 1583.75 211.86   Q 1583.83 211.25 1584.44 211.25   L 1639.50 211.25   A 0.50 0.50 0.0 0 1 1640.00 211.75   L 1640.00 390.50   A 0.50 0.50 0.0 0 1 1639.50 391.00   L 1584.51 391.00   Q 1584.01 391.00 1584.01 390.49   Q 1583.99 325.29 1584.00 260.13   C 1584.00 250.26 1582.76 240.57 1581.82 230.73   Z"/>
<path fill="#ffffff" d="   M 181.50 234.37   Q 190.29 233.71 199.10 233.43   C 217.25 232.87 235.39 231.51 253.50 230.77   C 280.16 229.67 306.88 228.88 333.52 227.43   C 353.34 226.35 373.14 226.05 392.95 225.08   Q 404.10 224.53 441.99 222.69   C 457.69 221.92 463.18 236.52 468.64 248.06   A 0.65 0.65 0.0 0 1 468.19 248.98   Q 394.37 264.82 320.26 280.52   C 308.36 283.05 301.23 283.19 287.93 281.34   Q 277.08 279.83 257.80 273.11   Q 227.39 262.50 199.31 246.80   Q 199.22 246.75 192.56 243.43   Q 186.32 240.33 181.16 235.30   Q 180.29 234.46 181.50 234.37   Z"/>
<path fill="#ffffff" d="   M 469.00 258.37   C 471.85 258.24 473.68 258.70 475.27 261.09   Q 480.16 268.46 484.85 275.97   C 494.72 291.78 501.90 302.23 493.97 320.67   Q 484.93 341.69 471.17 364.36   C 461.82 379.77 451.50 391.27 436.67 400.72   A 0.24 0.24 0.0 0 1 436.30 400.50   Q 438.58 350.76 440.76 301.07   Q 440.96 296.36 440.72 287.43   C 440.54 280.92 439.40 270.93 442.25 264.38   Q 442.48 263.85 443.02 263.61   C 450.52 260.27 460.66 258.76 469.00 258.37   Z"/>
<path fill="#ffffff" d="   M 382.50 287.25   C 384.84 277.54 395.11 273.47 403.80 272.02   Q 416.37 269.92 429.02 268.30   Q 429.60 268.23 429.57 268.81   C 427.41 310.80 407.35 361.73 362.52 374.31   Q 361.53 374.59 361.77 373.58   Q 372.16 330.07 382.50 287.25   Z"/>
<path fill="#ffffff" d="   M 324.25 309.79   C 333.29 292.12 352.48 284.77 370.87 281.44   Q 371.50 281.32 371.38 281.96   C 365.88 310.88 342.24 338.46 313.31 345.78   Q 310.47 346.50 308.34 346.50   Q 307.71 346.50 307.95 345.92   Q 316.00 325.91 324.25 309.79   Z"/>
</svg>