<svg width="20" height="16" viewBox="0 0 20 16" fill="none" xmlns="http://www.w3.org/2000/svg">
<path d="M15 0.25H5C2.381 0.25 0.25 2.381 0.25 5V11C0.25 13.619 2.381 15.75 5 15.75H15C17.619 15.75 19.75 13.619 19.75 11V5C19.75 2.381 17.619 0.25 15 0.25ZM5 1.75H15C16.354 1.75 17.515 2.58394 18.003 3.76294L11.803 7.89697C10.708 8.62597 9.292 8.62597 8.198 7.89697L1.99799 3.76294C2.48499 2.58294 3.646 1.75 5 1.75ZM15 14.25H5C3.208 14.25 1.75 12.792 1.75 11V5.401L7.36499 9.14502C8.16499 9.67802 9.082 9.94495 10 9.94495C10.917 9.94495 11.834 9.67802 12.635 9.14502L18.25 5.401V11C18.25 12.792 16.792 14.25 15 14.25Z" fill="#181C32"/>
</svg>
