<svg class="svg-icon" style="width: 1.4560546875em; height: 1em;vertical-align: middle;fill: currentColor;overflow: hidden;" viewBox="0 0 1491 1024" version="1.1" xmlns="http://www.w3.org/2000/svg"><path d="M738.985149 1023.993762c-185.491697 0-369.898028-85.195063-533.276934-246.378285C84.184549 657.738575 17.184976 539.034368 14.396706 534.044176l-11.976462-21.414164 12.063791-21.364262c2.819459-4.99643 70.424093-123.625784 192.209744-243.452784C370.484375 86.654695 554.541392 1.472107 738.985149 1.472107c419.082614 0 723.278518 467.811844 736.02846 487.722713l15.120284 23.6348-15.207612 23.572422C1462.076534 556.319148 1155.504051 1023.993762 738.985149 1023.993762zM103.665014 512.82962c56.439078 88.87533 291.982408 423.829534 635.320135 423.829534 318.954399 0 579.729389-331.617012 646.186279-424.022904-66.026486-92.405892-325.266992-423.84201-646.186279-423.84201C397.680925 88.800478 160.546972 423.9231 103.665014 512.82962zM742.746506 743.657217c-126.775843 0-229.910649-103.359365-229.910649-230.409668 0-127.069017 103.134806-230.440857 229.910649-230.440857 126.794557 0 229.948076 103.37184 229.948076 230.440857C972.694582 640.297852 869.541063 743.657217 742.746506 743.657217zM742.746506 370.135062c-78.620485 0-142.582278 64.198828-142.582278 143.112486 0 78.888707 63.961794 143.081298 142.582278 143.081298 78.639198 0 142.619705-64.186353 142.619705-143.081298C885.366211 434.33389 821.391942 370.135062 742.746506 370.135062z"  /></svg>