<svg width="11" height="12" viewBox="0 0 11 12" fill="none" xmlns="http://www.w3.org/2000/svg">
<path opacity="0.3" d="M7.19526 8.80409C6.93491 8.54374 6.93491 8.12163 7.19526 7.86128C7.45561 7.60093 7.87772 7.60093 8.13807 7.86128L10.8047 10.5279C11.0651 10.7883 11.0651 11.2104 10.8047 11.4708C10.5444 11.7311 10.1223 11.7311 9.86193 11.4708L7.19526 8.80409Z" fill="#7E8299"/>
<path fill-rule="evenodd" clip-rule="evenodd" d="M0.333496 4.99967C0.333496 7.577 2.42283 9.66634 5.00016 9.66634C7.57749 9.66634 9.66683 7.577 9.66683 4.99967C9.66683 2.42235 7.57749 0.333008 5.00016 0.333008C2.42283 0.333008 0.333496 2.42235 0.333496 4.99967ZM8.33347 4.99968C8.33347 6.84063 6.84109 8.33301 5.00014 8.33301C3.15919 8.33301 1.66681 6.84063 1.66681 4.99968C1.66681 3.15873 3.15919 1.66634 5.00014 1.66634C6.84109 1.66634 8.33347 3.15873 8.33347 4.99968Z" fill="#7E8299"/>
</svg>
