<svg width="25" height="25" viewBox="0 0 25 25" fill="none" xmlns="http://www.w3.org/2000/svg">
<path fill-rule="evenodd" clip-rule="evenodd" d="M14.1981 20.045C14.9643 20.8406 16.2304 20.8645 17.0261 20.0983L19.9073 17.3237C20.7029 16.5575 20.7268 15.2914 19.9606 14.4957L17.186 11.6145C16.4198 10.8189 15.1537 10.795 14.3581 11.5612L13.6378 12.2549L15.7187 14.4158C16.1018 14.8136 16.0899 15.4467 15.6921 15.8297C15.2943 16.2128 14.6612 16.2009 14.2781 15.8031L12.1971 13.6422L11.4768 14.3358C10.6812 15.102 10.6573 16.3681 11.4235 17.1637L14.1981 20.045Z" fill="#747474"/>
<path fill-rule="evenodd" clip-rule="evenodd" d="M7.26162 12.8421C8.02781 13.6377 9.29391 13.6616 10.0895 12.8954L10.8098 12.2018L8.72887 10.0408C8.34578 9.64301 8.35771 9.00996 8.75553 8.62687C9.15334 8.24377 9.7864 8.2557 10.1695 8.65352L12.2505 10.8144L12.9708 10.1208C13.7664 9.3546 13.7903 8.08849 13.0241 7.29286L10.2495 4.41163C9.48327 3.616 8.21717 3.59213 7.42154 4.35832L4.54031 7.13294C3.74468 7.89913 3.72081 9.16524 4.487 9.96087L7.26162 12.8421Z" fill="#747474"/>
</svg>
