<svg xmlns="http://www.w3.org/2000/svg" width="24" height="24" viewBox="0 0 24 24" fill="none">
<path d="M16.0172 9H15.3944C14.2832 9 13.2629 9.61425 12.743 10.5963L12.1539 11.7091C12.0644 11.8781 12.1071 12.0868 12.2558 12.2071L12.6401 12.5183C13.263 13.0225 13.7555 13.6691 14.0763 14.4035L14.232 14.7601C14.2956 14.9058 14.4395 15 14.5986 15H18.6746C19.7296 15 20.4056 13.8774 19.9119 12.945L18.6685 10.5963C18.1486 9.61425 17.1284 9 16.0172 9Z" fill="white"/>
<path opacity="0.3" d="M18 6C18 4.89543 17.1046 4 16 4C14.8954 4 14 4.89543 14 6C14 7.10457 14.8954 8 16 8C17.1046 8 18 7.10457 18 6Z" fill="white"/>
<path d="M4.65489 14.8559C5.40392 13.1224 7.11164 12 9.00003 12C10.8884 12 12.5961 13.1224 13.3451 14.8559L14.793 18.2067C15.3636 19.5271 14.3955 21 12.9571 21H5.04295C3.60456 21 2.63647 19.5271 3.20701 18.2067L4.65489 14.8559Z" fill="white"/>
<path opacity="0.3" d="M12 8C12 6.34315 10.6569 5 9 5C7.34315 5 6 6.34315 6 8C6 9.65685 7.34315 11 9 11C10.6569 11 12 9.65685 12 8Z" fill="white"/>
</svg>