<svg xmlns="http://www.w3.org/2000/svg" width="128" height="128" viewBox="0 0 128 128" fill="none">
<path opacity="0.3" d="M64 31.9468L104.16 101.333H23.84L64 31.9468ZM14.6133 96.0001C10.5067 103.093 15.6267 112 23.84 112H104.16C112.373 112 117.493 103.093 113.387 96.0001L73.2267 26.6135C69.12 19.5201 58.88 19.5201 54.7733 26.6135L14.6133 96.0001Z" fill="#FF8B00"/>
<path d="M58.666 69.333V58.6663C58.666 55.733 61.066 53.333 63.9993 53.333C66.9327 53.333 69.3327 55.733 69.3327 58.6663V69.333C69.3327 72.2663 66.9327 74.6663 63.9993 74.6663C61.066 74.6663 58.666 72.2663 58.666 69.333Z" fill="#FF8B00"/>
<path d="M69.3327 85.333H58.666V95.9997H69.3327V85.333Z" fill="#FF8B00"/>
</svg>