<svg xmlns="http://www.w3.org/2000/svg" width="20" height="20" viewBox="0 0 20 20" fill="none">
<path d="M3.00526 20C2.23776 20.0013 1.49885 19.7093 0.940043 19.1839C0.38124 18.6585 0.044902 17.9395 4.41218e-06 17.1744L4.41218e-06 16.9988L4.41218e-06 5.9934C-0.00130994 5.22694 0.291069 4.48902 0.817183 3.93097C1.3433 3.37292 2.06327 3.03704 2.82946 2.9922H3.00526H9.01578C9.28159 2.97668 9.5427 3.06724 9.74164 3.24397C9.94059 3.4207 10.0611 3.66912 10.0766 3.93458C10.0922 4.20003 10.0015 4.46078 9.82452 4.65946C9.64755 4.85814 9.3988 4.97848 9.13299 4.994H9.01578L3.00526 4.994C2.75985 4.99415 2.52303 5.08422 2.33969 5.24713C2.15634 5.41004 2.03922 5.63446 2.01052 5.87785V5.9934L2.01052 16.9988C2.01072 17.2437 2.10096 17.48 2.26411 17.6629C2.42727 17.8457 2.65197 17.9624 2.89557 17.9907H3.01127H14.024C14.2694 17.9926 14.5069 17.9047 14.6916 17.7434C14.8763 17.5822 14.9954 17.3589 15.0263 17.1158V16.9988L15.0263 10.9964C15.028 10.7421 15.1265 10.498 15.3019 10.3136C15.4773 10.1293 15.7163 10.0185 15.9706 10.0038C16.2248 9.98907 16.4751 10.0715 16.6706 10.2344C16.8661 10.3973 16.9922 10.6285 17.0233 10.8809V10.9964V16.9988C17.0247 17.764 16.7334 18.5009 16.2088 19.0588C15.6843 19.6166 14.9662 19.9533 14.2014 20H14.024H3.00526ZM7.30579 12.7041C7.13348 12.5317 7.03003 12.3025 7.01481 12.0594C6.9996 11.8163 7.07367 11.576 7.22314 11.3836L7.30579 11.289L16.6221 1.9853L13.0233 1.9853C12.7776 1.98753 12.5398 1.89946 12.3549 1.73785C12.1701 1.57625 12.0513 1.3524 12.021 1.10895V0.993401C12.0212 0.748323 12.1114 0.51182 12.2745 0.328724C12.4376 0.145628 12.6624 0.0286636 12.9061 3.8147e-06H13.0233L19.0338 3.8147e-06C19.1791 -0.000431061 19.3226 0.0308094 19.4545 0.0915394H19.4696H19.4771H19.4846C19.5684 0.133982 19.6458 0.188038 19.7145 0.252106L19.728 0.264109L19.74 0.277615L19.7536 0.291121C19.8901 0.444098 19.9761 0.63533 20 0.838839V0.849342C20 0.880856 20 0.91387 20 0.946882L20 6.9943C19.9717 7.22687 19.8625 7.44214 19.6916 7.60262C19.5207 7.76311 19.2988 7.85863 19.0647 7.87255C18.8305 7.88648 18.5988 7.81792 18.41 7.67883C18.2213 7.53973 18.0873 7.33891 18.0316 7.11135V6.9943L18.0316 3.40937L8.72277 12.7041C8.53463 12.8913 8.27987 12.9964 8.01428 12.9964C7.74869 12.9964 7.49392 12.8913 7.30579 12.7041Z" fill="#0148FF"/>
</svg>