<svg xmlns="http://www.w3.org/2000/svg" width="24" height="24" viewBox="0 0 24 24" fill="none">
<path fill-rule="evenodd" clip-rule="evenodd" d="M5.20506 4.83455C5.34673 4.68474 5.54382 4.59985 5.75 4.59985H18.45C18.6561 4.59985 18.8532 4.6847 18.9948 4.83444C19.1365 4.98419 19.2103 5.18564 19.1988 5.39146L18.3999 19.7728C18.3868 21.0401 17.2885 21.8999 16.15 21.8999H8.05C6.87572 21.8999 5.81209 21.0067 5.8001 19.6726L5.00117 5.39175C4.98966 5.18588 5.0634 4.98436 5.20506 4.83455ZM6.54313 6.09985L7.29883 19.608C7.29961 19.6219 7.3 19.6359 7.3 19.6499C7.3 20.1031 7.63095 20.3999 8.05 20.3999H16.15C16.6047 20.3999 16.9 20.07 16.9 19.7499C16.9 19.736 16.9004 19.7221 16.9012 19.7083L17.6572 6.09985H6.54313Z" fill="#181C32"/>
<path fill-rule="evenodd" clip-rule="evenodd" d="M4 5.34985C4 4.93564 4.33579 4.59985 4.75 4.59985H19.45C19.8642 4.59985 20.2 4.93564 20.2 5.34985C20.2 5.76407 19.8642 6.09985 19.45 6.09985H4.75C4.33579 6.09985 4 5.76407 4 5.34985Z" fill="#181C32"/>
<path opacity="0.3" fill-rule="evenodd" clip-rule="evenodd" d="M10.4501 3.5C10.2643 3.5 10.1001 3.66421 10.1001 3.85V4.6H14.1001V3.85C14.1001 3.66421 13.9359 3.5 13.7501 3.5H10.4501ZM8.6001 3.85C8.6001 2.83579 9.43588 2 10.4501 2H13.7501C14.7643 2 15.6001 2.83579 15.6001 3.85V5.35C15.6001 5.76421 15.2643 6.1 14.8501 6.1H9.3501C8.93588 6.1 8.6001 5.76421 8.6001 5.35V3.85Z" fill="#181C32"/>
<path opacity="0.3" fill-rule="evenodd" clip-rule="evenodd" d="M12.0503 6.8999C12.4645 6.8999 12.8003 7.23569 12.8003 7.6499V19.0499C12.8003 19.4641 12.4645 19.7999 12.0503 19.7999C11.6361 19.7999 11.3003 19.4641 11.3003 19.0499V7.6499C11.3003 7.23569 11.6361 6.8999 12.0503 6.8999Z" fill="#181C32"/>
<path opacity="0.3" fill-rule="evenodd" clip-rule="evenodd" d="M8.39172 6.80213C8.80467 6.76981 9.16563 7.07837 9.19795 7.49133L10.0979 18.9913C10.1303 19.4043 9.8217 19.7652 9.40875 19.7976C8.9958 19.8299 8.63484 19.5213 8.60252 19.1084L7.70252 7.60836C7.6702 7.19541 7.97877 6.83445 8.39172 6.80213Z" fill="#181C32"/>
<path opacity="0.3" fill-rule="evenodd" clip-rule="evenodd" d="M15.8087 6.80213C16.2216 6.83445 16.5302 7.19541 16.4978 7.60836L15.5978 19.1084C15.5655 19.5213 15.2046 19.8299 14.7916 19.7976C14.3787 19.7652 14.0701 19.4043 14.1024 18.9913L15.0024 7.49133C15.0347 7.07837 15.3957 6.76981 15.8087 6.80213Z" fill="#181C32"/>
</svg>