<svg xmlns="http://www.w3.org/2000/svg" width="24" height="24" viewBox="0 0 24 24" fill="none">
<path d="M21.7269 4.99936C22.3043 5.57677 22.3138 6.50997 21.7482 7.09897L12.8989 16.3146C12.6236 16.6013 12.2458 16.767 11.8484 16.7753L8.12514 16.8534L8.20358 13.1149C8.21173 12.7266 8.37019 12.3565 8.64563 12.0827L17.6962 3.08384C18.2824 2.50092 19.2299 2.50228 19.8145 3.08688L21.7269 4.99936Z" fill="#28A4C1"/>
<path opacity="0.3" d="M12.9 2C13.4523 2 13.9 2.44772 13.9 3C13.9 3.55228 13.4523 4 12.9 4H6C4.89543 4 4 4.89543 4 6V18C4 19.1046 4.89543 20 6 20H18C19.1046 20 20 19.1046 20 18V13C20 12.4477 20.4477 12 21 12C21.5523 12 22 12.4477 22 13V18C22 20.2091 20.2091 22 18 22H6C3.79086 22 2 20.2091 2 18V6C2 3.79086 3.79086 2 6 2H12.9Z" fill="#28A4C1"/>
</svg>