<svg xmlns="http://www.w3.org/2000/svg" width="128" height="128" viewBox="0 0 128 128" fill="none">
<path d="M66.6429 112.547C94.1514 112.547 116.453 90.2453 116.453 62.6386C116.453 35.032 94.0531 12.7305 66.6429 12.7305C39.1345 12.7305 16.833 35.032 16.833 62.6386C16.833 90.2453 39.1345 112.547 66.6429 112.547Z" fill="#F1F3F9" stroke="#D6DCE8" stroke-width="2" stroke-miterlimit="10"/>
<path d="M14.2635 40.4247L16.9185 39.6244C17.1108 39.5686 17.1108 39.2895 16.9185 39.2336L14.2635 38.4334C14.1953 38.4148 14.1457 38.3652 14.1271 38.2969L13.3268 35.6481C13.271 35.4558 12.9919 35.4558 12.936 35.6481L12.1358 38.2969C12.1172 38.3652 12.0676 38.4148 11.9993 38.4334L9.35053 39.2336C9.15822 39.2895 9.15822 39.5686 9.35053 39.6244L12.0055 40.4247C12.0738 40.4433 12.1234 40.4929 12.142 40.5611L12.9422 43.2161C12.9981 43.4084 13.2772 43.4084 13.333 43.2161L14.1333 40.5611C14.1457 40.4929 14.1953 40.4433 14.2635 40.4247Z" fill="#AAB2C5"/>
<path d="M99.3959 81.4812L101.719 80.781C101.887 80.7322 101.887 80.488 101.719 80.4391L99.3959 79.7389C99.3362 79.7227 99.2928 79.6792 99.2765 79.6195L98.5763 77.302C98.5274 77.1337 98.2832 77.1337 98.2343 77.302L97.5341 79.6195C97.5179 79.6792 97.4744 79.7227 97.4147 79.7389L95.097 80.4391C94.9288 80.488 94.9288 80.7322 95.097 80.781L97.4202 81.4812C97.4799 81.4975 97.5233 81.5409 97.5396 81.6006L98.2398 83.9236C98.2886 84.0919 98.5329 84.0919 98.5817 83.9236L99.2819 81.6006C99.2928 81.5409 99.3362 81.4975 99.3959 81.4812Z" fill="#AAB2C5"/>
<path d="M60.6323 106.323L62.9555 105.523C63.1237 105.467 63.1237 105.188 62.9555 105.132L60.6323 104.332C60.5726 104.313 60.5292 104.264 60.5129 104.195L59.8127 101.547C59.7639 101.354 59.5196 101.354 59.4708 101.547L58.7706 104.195C58.7543 104.264 58.7109 104.313 58.6512 104.332L56.3335 105.132C56.1652 105.188 56.1652 105.467 56.3335 105.523L58.6566 106.323C58.7163 106.342 58.7597 106.391 58.776 106.46L59.4762 109.115C59.5251 109.307 59.7693 109.307 59.8182 109.115L60.5184 106.46C60.5292 106.391 60.5726 106.342 60.6323 106.323Z" fill="#AAB2C5"/>
<path d="M27.7212 51.0498L29.3806 50.5497C29.5008 50.5148 29.5008 50.3404 29.3806 50.3055L27.7212 49.8054C27.6785 49.7938 27.6475 49.7628 27.6359 49.7201L27.1358 48.0647C27.1009 47.9446 26.9264 47.9446 26.8915 48.0647L26.3914 49.7201C26.3797 49.7628 26.3487 49.7938 26.3061 49.8054L24.6506 50.3055C24.5304 50.3404 24.5304 50.5148 24.6506 50.5497L26.3099 51.0498C26.3526 51.0615 26.3836 51.0925 26.3952 51.1351L26.8954 52.7944C26.9303 52.9145 27.1047 52.9145 27.1396 52.7944L27.6398 51.1351C27.6475 51.0925 27.6785 51.0615 27.7212 51.0498Z" fill="#AAB2C5"/>
<path d="M120.421 56.0225L122.08 55.5224C122.2 55.4875 122.2 55.313 122.08 55.2782L120.421 54.7781C120.378 54.7664 120.347 54.7354 120.335 54.6928L119.835 53.0374C119.8 52.9172 119.626 52.9172 119.591 53.0374L119.091 54.6928C119.079 54.7354 119.048 54.7664 119.006 54.7781L117.35 55.2782C117.23 55.313 117.23 55.4875 117.35 55.5224L119.01 56.0225C119.052 56.0341 119.083 56.0651 119.095 56.1078L119.595 57.767C119.63 57.8872 119.804 57.8872 119.839 57.767L120.339 56.1078C120.347 56.0651 120.378 56.0341 120.421 56.0225Z" fill="#AAB2C5"/>
<path d="M50.1608 40.0752L51.8201 39.5751C51.9403 39.5402 51.9403 39.3658 51.8201 39.3309L50.1608 38.8308C50.1181 38.8192 50.0871 38.7881 50.0755 38.7455L49.5753 37.0901C49.5404 36.97 49.366 36.97 49.3311 37.0901L48.8309 38.7455C48.8193 38.7881 48.7883 38.8192 48.7456 38.8308L47.0901 39.3309C46.97 39.3658 46.97 39.5402 47.0901 39.5751L48.7495 40.0752C48.7922 40.0869 48.8232 40.1179 48.8348 40.1605L49.335 41.8198C49.3698 41.9399 49.5443 41.9399 49.5792 41.8198L50.0793 40.1605C50.0871 40.1179 50.1181 40.0869 50.1608 40.0752Z" fill="#AAB2C5"/>
<path d="M15.2744 83.6416L16.9338 83.1415C17.054 83.1066 17.054 82.9322 16.9338 82.8973L15.2744 82.3972C15.2318 82.3856 15.2007 82.3546 15.1891 82.3119L14.689 80.6565C14.6541 80.5364 14.4796 80.5364 14.4447 80.6565L13.9446 82.3119C13.933 82.3546 13.9019 82.3856 13.8593 82.3972L12.2038 82.8973C12.0836 82.9322 12.0836 83.1066 12.2038 83.1415L13.8632 83.6416C13.9058 83.6533 13.9368 83.6843 13.9485 83.7269L14.4486 85.3862C14.4835 85.5063 14.658 85.5063 14.6929 85.3862L15.193 83.7269C15.2007 83.6843 15.2318 83.6533 15.2744 83.6416Z" fill="#AAB2C5"/>
<path d="M103 53H71V57C71 59.4 69.4 61 67 61C64.6 61 63 59.4 63 57V53H31C28.6 53 27 54.6 27 57V65H107V57C107 54.6 105.4 53 103 53Z" fill="#AAB2C5"/>
<path d="M67 61C64.6 61 63 59.4 63 57V25C63 22.6 64.6 21 67 21C69.4 21 71 22.6 71 25V57C71 59.4 69.4 61 67 61Z" fill="white" stroke="#AAB2C5" stroke-width="4"/>
<path d="M91.4 97H42.6C40.6 97 38.6 95.4 38.2 93.4L31 65H103L95.8 93.4C95.4 95.4 93.4 97 91.4 97ZM71 85V73C71 70.6 69.4 69 67 69C64.6 69 63 70.6 63 73V85C63 87.4 64.6 89 67 89C69.4 89 71 87.4 71 85ZM87 85V73C87 70.6 85.4 69 83 69C80.6 69 79 70.6 79 73V85C79 87.4 80.6 89 83 89C85.4 89 87 87.4 87 85ZM55 85V73C55 70.6 53.4 69 51 69C48.6 69 47 70.6 47 73V85C47 87.4 48.6 89 51 89C53.4 89 55 87.4 55 85Z" fill="white" stroke="#AAB2C5" stroke-width="4"/>
<path d="M102.034 36.5904L104.405 34.4875C104.578 34.3373 104.444 34.0478 104.218 34.082L101.08 34.5247C101 34.5381 100.925 34.5104 100.873 34.4486L98.7725 32.0844C98.6224 31.9116 98.3328 32.0455 98.3671 32.2717L98.8067 35.4032C98.8201 35.4829 98.7924 35.5582 98.7306 35.6102L96.3662 37.7102C96.1934 37.8603 96.3273 38.1499 96.5535 38.1156L99.6916 37.6729C99.7713 37.6595 99.8466 37.6872 99.8986 37.7491L102.002 40.1197C102.152 40.2925 102.441 40.1586 102.407 39.9324L101.964 36.7945C101.945 36.7177 101.972 36.6425 102.034 36.5904Z" fill="#AAB2C5"/>
<path d="M51.4079 104.013C51.0523 105.524 50.5191 107.124 49.8969 108.457C48.2082 111.746 45.5419 114.323 42.2534 116.012C38.876 117.701 34.8765 118.412 30.8769 117.523C21.4558 115.567 15.4121 106.324 17.3674 96.9029C19.3227 87.4818 28.4772 81.3492 37.8983 83.3934C41.2757 84.1044 44.2087 85.7931 46.6973 88.104C50.8746 92.2813 52.6522 98.325 51.4079 104.013Z" fill="#D6DCE8" stroke="#AAB2C5" stroke-width="2" stroke-miterlimit="10"/>
<path d="M39.9425 97.946H36.943V94.9465C36.943 93.6332 35.9112 92.4355 34.432 92.4355C33.1187 92.4355 31.9211 93.4673 31.9211 94.9465V97.946H28.9216C27.6083 97.946 26.4106 98.9778 26.4106 100.457C26.4106 101.141 26.6541 101.781 27.1257 102.253C27.5973 102.724 28.2377 102.968 28.9216 102.968H31.9211V105.967C31.9211 107.281 32.9529 108.478 34.432 108.478C35.7454 108.478 36.943 107.447 36.943 105.967V102.968H39.9425C41.2558 102.968 42.4535 101.936 42.4535 100.457C42.4535 98.9778 41.2558 97.946 39.9425 97.946Z" fill="white" stroke="#AAB2C5" stroke-width="2"/>
</svg>