<svg xmlns="http://www.w3.org/2000/svg" width="128" height="128" viewBox="0 0 128 128" fill="none">
<path d="M64.1173 102.409C88.4818 102.409 108.235 82.6559 108.235 58.2043C108.235 33.7527 88.3948 14 64.1173 14C39.7527 14 20 33.7527 20 58.2043C20 82.6559 39.7527 102.409 64.1173 102.409Z" fill="#F1F3F9" stroke="#D6DCE8" stroke-width="2" stroke-miterlimit="10"/>
<path d="M116.239 44.1986C118.209 44.1986 119.806 42.6013 119.806 40.6309C119.806 38.6605 118.209 37.0632 116.239 37.0632C114.268 37.0632 112.671 38.6605 112.671 40.6309C112.671 42.6013 114.268 44.1986 116.239 44.1986Z" fill="#F1F3F9"/>
<path d="M121.459 30.2762C122.805 30.2762 123.896 29.1854 123.896 27.8398C123.896 26.4942 122.805 25.4033 121.459 25.4033C120.114 25.4033 119.023 26.4942 119.023 27.8398C119.023 29.1854 120.114 30.2762 121.459 30.2762Z" fill="#F1F3F9"/>
<path d="M24.4047 29.2277C25.7503 29.2277 26.8412 28.1368 26.8412 26.7912C26.8412 25.4456 25.7503 24.3547 24.4047 24.3547C23.0591 24.3547 21.9683 25.4456 21.9683 26.7912C21.9683 28.1368 23.0591 29.2277 24.4047 29.2277Z" fill="#F1F3F9"/>
<path d="M9.52485 76.2167C12.0239 76.2167 14.0497 74.1909 14.0497 71.6918C14.0497 69.1928 12.0239 67.167 9.52485 67.167C7.02584 67.167 5 69.1928 5 71.6918C5 74.1909 7.02584 76.2167 9.52485 76.2167Z" fill="#F1F3F9"/>
<path d="M89.3447 91.0452H101.978C103.564 91.0452 104.924 89.6859 104.924 88.0999V29.1938C104.924 27.6079 103.564 26.2485 101.978 26.2485H89.737" fill="#F1F3F9"/>
<path d="M89.3447 91.0452H101.978C103.564 91.0452 104.924 89.6859 104.924 88.0999V29.1938C104.924 27.6079 103.564 26.2485 101.978 26.2485H89.737L89.3447 91.0452Z" stroke="#D6DCE8" stroke-width="2" stroke-miterlimit="10"/>
<path d="M39.1875 91.0452H26.9468C25.3601 91.0452 24 89.6859 24 88.0999V29.1938C24 27.6079 25.3601 26.2485 26.9468 26.2485H38.9353" fill="#F1F3F9"/>
<path d="M39.1875 91.0452H26.9468C25.3601 91.0452 24 89.6859 24 88.0999V29.1938C24 27.6079 25.3601 26.2485 26.9468 26.2485H38.9353L39.1875 91.0452Z" stroke="#D6DCE8" stroke-width="2" stroke-miterlimit="10"/>
<path d="M32.5156 38.0298H38.6359" stroke="#D6DCE8" stroke-width="2" stroke-miterlimit="10" stroke-linecap="round"/>
<path d="M32.5156 45.9595H38.6359" stroke="#D6DCE8" stroke-width="2" stroke-miterlimit="10" stroke-linecap="round"/>
<path d="M32.5156 54.116H38.6359" stroke="#D6DCE8" stroke-width="2" stroke-miterlimit="10" stroke-linecap="round"/>
<path d="M32.5156 62.2722H38.6359" stroke="#D6DCE8" stroke-width="2" stroke-miterlimit="10" stroke-linecap="round"/>
<path d="M32.5156 78.1311H38.6359" stroke="#D6DCE8" stroke-width="2" stroke-miterlimit="10" stroke-linecap="round"/>
<path d="M95.6305 38.0298H89.7368" stroke="#D6DCE8" stroke-width="2" stroke-miterlimit="10"/>
<path d="M95.6305 45.9595H89.7368" stroke="#D6DCE8" stroke-width="2" stroke-miterlimit="10" stroke-linecap="round"/>
<path d="M95.6305 54.116H89.7368" stroke="#D6DCE8" stroke-width="2" stroke-miterlimit="10" stroke-linecap="round"/>
<path d="M95.6305 62.2722H89.7368" stroke="#D6DCE8" stroke-width="2" stroke-miterlimit="10" stroke-linecap="round"/>
<path d="M95.6305 78.1311H89.7368" stroke="#D6DCE8" stroke-width="2" stroke-miterlimit="10" stroke-linecap="round"/>
<path d="M86.7901 96.0298H41.9078C40.321 96.0298 38.9609 94.6704 38.9609 93.0845V24.6628C38.9609 23.0769 40.321 21.7175 41.9078 21.7175H86.7901C88.3769 21.7175 89.737 23.0769 89.737 24.6628V93.0845C89.737 94.6704 88.3769 96.0298 86.7901 96.0298Z" fill="white" stroke="#C5CCDA" stroke-width="2" stroke-miterlimit="10"/>
<path d="M81.3496 43.8843H50.068C49.3879 43.8843 48.9346 43.4737 48.9346 42.8578V40.1889C48.9346 39.573 49.3879 39.1624 50.068 39.1624H81.3496C82.0297 39.1624 82.483 39.573 82.483 40.1889V42.8578C82.483 43.2684 82.0297 43.8843 81.3496 43.8843Z" fill="#F1F3F9" stroke="#D6DCE8" stroke-width="2" stroke-miterlimit="10"/>
<path d="M81.3496 56.1189H50.068C49.3879 56.1189 48.9346 55.7083 48.9346 55.0924V52.4235C48.9346 51.8076 49.3879 51.397 50.068 51.397H81.3496C82.0297 51.397 82.483 51.8076 82.483 52.4235V55.0924C82.483 55.7083 82.0297 56.1189 81.3496 56.1189Z" fill="#F1F3F9" stroke="#D6DCE8" stroke-width="2" stroke-miterlimit="10"/>
<path d="M81.3496 68.5796H50.068C49.3879 68.5796 48.9346 68.169 48.9346 67.5531V64.8842C48.9346 64.2683 49.3879 63.8577 50.068 63.8577H81.3496C82.0297 63.8577 82.483 64.2683 82.483 64.8842V67.5531C82.483 68.169 82.0297 68.5796 81.3496 68.5796Z" fill="#F1F3F9" stroke="#D6DCE8" stroke-width="2" stroke-miterlimit="10"/>
<path d="M81.3497 81.2673H68.8824C68.2024 81.2673 67.749 80.8567 67.749 80.2408V77.5719C67.749 76.956 68.2024 76.5454 68.8824 76.5454H81.3497C82.0298 76.5454 82.4831 76.956 82.4831 77.5719V80.2408C82.4831 80.8567 82.0298 81.2673 81.3497 81.2673Z" fill="#F1F3F9" stroke="#D6DCE8" stroke-width="2" stroke-miterlimit="10"/>
<path d="M78.1313 103.818C77.8483 105.021 77.4238 106.295 76.9285 107.356C75.5842 109.974 73.4616 112.026 70.8437 113.37C68.1551 114.714 64.9712 115.28 61.7873 114.573C54.2874 113.016 49.4761 105.658 51.0327 98.1581C52.5893 90.6582 59.8769 85.7762 67.3768 87.4035C70.0654 87.9695 72.4003 89.3139 74.3814 91.1535C77.7068 94.4789 79.1219 99.2901 78.1313 103.818Z" fill="#D6DCE8" stroke="#AAB2C5" stroke-width="2" stroke-miterlimit="10"/>
<path d="M69.0041 98.7854H66.8202V96.6015C66.8202 95.4513 65.9153 94.3987 64.6174 94.3987C63.4672 94.3987 62.4146 95.3036 62.4146 96.6015V98.7854H60.2306C59.0805 98.7854 58.0278 99.6903 58.0278 100.988C58.0278 101.582 58.2396 102.145 58.6568 102.562C59.074 102.979 59.6373 103.191 60.2306 103.191H62.4146V105.375C62.4146 106.525 63.3195 107.578 64.6174 107.578C65.7676 107.578 66.8202 106.673 66.8202 105.375V103.191H69.0041C70.1543 103.191 71.2069 102.286 71.2069 100.988C71.2069 99.6903 70.1543 98.7854 69.0041 98.7854Z" fill="white" stroke="#AAB2C5" stroke-width="2"/>
</svg>